<?xml version="1.0" encoding="UTF-8"?>
<svg enable-background="new 0 0 100 100" viewBox="0 0 100 100" xmlns="http://www.w3.org/2000/svg">
 <path fill="rgba(0, 0, 0, 0)" stroke="#FFCEB0" stroke-width="4" d="m90.129,54.778c-2.018-2.314-4.418-4.167-7.074-5.52 2.048-8.299 1.894-19.114-4.016-27.677 .671-1.838.258-3.976-1.239-5.425-6.332-6.128-15.669-9.236-27.096-9.236s-20.764,3.108-27.096,9.237c-1.497,1.449-1.91,3.587-1.239,5.425-5.909,8.563-6.062,19.378-4.015,27.677-2.656,1.352-5.057,3.205-7.074,5.52-4.137,4.746-6.179,10.818-5.748,17.099 .842,12.312 11.164,21.959 23.492,21.959 .541,0 1.083-.02 1.63-.056 .81-.056 1.566-.431 2.102-1.046 .533-.61.802-1.412.746-2.223l-2.802-40.911c-.116-1.689-1.59-2.953-3.267-2.849-1.108.076-2.191.254-3.259.477-1.517-6.714-1.381-15.607 3.342-22.328 1.158-.081 2.295-.532 3.195-1.403 4.362-4.221 11.309-6.361 19.992-6.361s15.63,2.14 19.992,6.361c.899.87 2.037,1.323 3.194,1.404 4.724,6.72 4.859,15.614 3.343,22.327-1.067-.223-2.151-.401-3.259-.477-1.676-.106-3.151,1.159-3.267,2.849l-2.802,40.911c-.056.811.213,1.612.746,2.223 .535.615 1.291.99 2.102,1.046 .547.036 1.09.056 1.63.056 12.329,0 22.65-9.646 23.492-21.959 .434-6.281-1.608-12.354-5.745-17.1z"/>
 <path fill="#FFCEB0" d="m35.773,48.743c-1.688.116-2.963,1.579-2.848,3.268l2.53,36.929c.11,1.618 1.457,2.857 3.053,2.857 .072,0 .142-.004.214-.008 1.688-.116 2.963-1.579 2.848-3.27l-2.53-36.927c-.114-1.69-1.587-2.951-3.267-2.849z"/>
 <path fill="#FFCEB0" d="m65.633,48.743c-1.658-.104-3.152,1.16-3.267,2.849l-2.53,36.928c-.116,1.69 1.159,3.153 2.848,3.27l.214.008c1.596,0 2.943-1.239 3.053-2.857l2.53-36.929c.116-1.691-1.16-3.154-2.848-3.269z"/>
</svg>
